HIERARCHY
ROOT Hips
{
	OFFSET 0.00000 0.00000 0.00000
	CHANNELS 6 Xposition Yposition Zposition Zrotation Yrotation Xrotation 
	JOINT LHipJoint
	{
		OFFSET 0 0 0
		CHANNELS 3 Zrotation Yrotation Xrotation
		JOINT LeftUpLeg
		{
			OFFSET 1.66553 -1.82942 0.76350
			CHANNELS 3 Zrotation Yrotation Xrotation
			JOINT LeftLeg
			{
				OFFSET 2.41740 -6.64177 0.00000
				CHANNELS 3 Zrotation Yrotation Xrotation
				JOINT LeftFoot
				{
					OFFSET 2.71614 -7.46254 0.00000
					CHANNELS 3 Zrotation Yrotation Xrotation
					JOINT LeftToeBase
					{
						OFFSET 0.08005 -0.21993 1.82495
						CHANNELS 3 Zrotation Yrotation Xrotation
						End Site
						{
							OFFSET 0.00000 -0.00000 0.93441
						}
					}
				}
			}
		}
	}
	JOINT RHipJoint
	{
		OFFSET 0 0 0
		CHANNELS 3 Zrotation Yrotation Xrotation
		JOINT RightUpLeg
		{
			OFFSET -1.63725 -1.82942 0.76350
			CHANNELS 3 Zrotation Yrotation Xrotation
			JOINT RightLeg
			{
				OFFSET -2.40538 -6.60872 0.00000
				CHANNELS 3 Zrotation Yrotation Xrotation
				JOINT RightFoot
				{
					OFFSET -2.73312 -7.50919 0.00000
					CHANNELS 3 Zrotation Yrotation Xrotation
					JOINT RightToeBase
					{
						OFFSET -0.15567 -0.42769 1.93504
						CHANNELS 3 Zrotation Yrotation Xrotation
						End Site
						{
							OFFSET -0.00000 -0.00000 1.00100
						}
					}
				}
			}
		}
	}
	JOINT LowerBack
	{
		OFFSET 0 0 0
		CHANNELS 3 Zrotation Yrotation Xrotation
		JOINT Spine
		{
			OFFSET 0.00326 2.30118 -0.13017
			CHANNELS 3 Zrotation Yrotation Xrotation
			JOINT Spine1
			{
				OFFSET 0.02887 2.30677 0.00834
				CHANNELS 3 Zrotation Yrotation Xrotation
				JOINT Neck
				{
					OFFSET 0 0 0
					CHANNELS 3 Zrotation Yrotation Xrotation
					JOINT Neck1
					{
						OFFSET 0.12946 1.68326 0.00713
						CHANNELS 3 Zrotation Yrotation Xrotation
						JOINT Head
						{
							OFFSET -0.24364 1.67243 -0.16079
							CHANNELS 3 Zrotation Yrotation Xrotation
							End Site
							{
								OFFSET -0.09229 1.70819 -0.06383
							}
						}
					}
				}
				JOINT LeftShoulder
				{
					OFFSET 0 0 0
					CHANNELS 3 Zrotation Yrotation Xrotation
					JOINT LeftArm
					{
						OFFSET 3.28104 0.69567 -0.00556
						CHANNELS 3 Zrotation Yrotation Xrotation
						JOINT LeftForeArm
						{
							OFFSET 5.70706 -0.00000 -0.00000
							CHANNELS 3 Zrotation Yrotation Xrotation
							JOINT LeftHand
							{
								OFFSET 3.33243 -0.00000 0.00000
								CHANNELS 3 Zrotation Yrotation Xrotation
								JOINT LeftFingerBase
								{
									OFFSET 0 0 0
									CHANNELS 3 Zrotation Yrotation Xrotation
									JOINT LeftHandIndex1
									{
										OFFSET 0.79269 -0.00000 0.00000
										CHANNELS 3 Zrotation Yrotation Xrotation
										End Site
										{
											OFFSET 0.63909 -0.00000 0.00000
										}
									}
								}
								JOINT LThumb
								{
									OFFSET 0 0 0
									CHANNELS 3 Zrotation Yrotation Xrotation
									End Site
									{
										OFFSET 0.64884 -0.00000 0.64884
									}
								}
							}
						}
					}
				}
				JOINT RightShoulder
				{
					OFFSET 0 0 0
					CHANNELS 3 Zrotation Yrotation Xrotation
					JOINT RightArm
					{
						OFFSET -3.40955 0.64424 0.14010
						CHANNELS 3 Zrotation Yrotation Xrotation
						JOINT RightForeArm
						{
							OFFSET -5.88176 -0.00000 -0.00000
							CHANNELS 3 Zrotation Yrotation Xrotation
							JOINT RightHand
							{
								OFFSET -3.28156 -0.00000 0.00000
								CHANNELS 3 Zrotation Yrotation Xrotation
								JOINT RightFingerBase
								{
									OFFSET 0 0 0
									CHANNELS 3 Zrotation Yrotation Xrotation
									JOINT RightHandIndex1
									{
										OFFSET -0.86313 -0.00000 0.00000
										CHANNELS 3 Zrotation Yrotation Xrotation
										End Site
										{
											OFFSET -0.69587 -0.00000 0.00000
										}
									}
								}
								JOINT RThumb
								{
									OFFSET 0 0 0
									CHANNELS 3 Zrotation Yrotation Xrotation
									End Site
									{
										OFFSET -0.70650 -0.00000 0.70650
									}
								}
							}
						}
					}
				}
			}
		}
	}
}
MOTION
Frames: 6
Frame Time: .0083333
-5.0813 16.5342 -3.1858 -0.1119 -6.3449 25.9198 0.0000 0.0000 0.0000 1.8024 -12.0052 -58.5692 7.0225 15.3508 48.9594 0.7510 -3.8395 -15.5248 4.5178 -12.8193 -38.6956 0.0000 0.0000 0.0000 1.0776 15.3747 -61.0337 -8.6510 -16.5778 54.8752 -1.1705 -0.6408 -20.6921 -0.9122 6.0858 -17.0337 1.8396 -1.0394 24.2103 0.0279 -0.9853 10.6440 -0.7721 -0.4506 -1.7896 13.9643 6.5106 9.1333 -25.6835 5.6229 -29.0776 -12.6849 4.2481 -9.0000 0.0000 -0.0000 0.0000 -75.3829 -7.7597 32.1471 154.9424 -36.2628 -111.6761 -0.0000 0.0000 -50.5434 46.3359 37.2158 32.3625 -7.1250 0.0000 -0.0000 26.0223 76.5222 19.4970 0.0000 -0.0000 0.0000 85.7509 12.7585 47.2793 -150.8409 40.1616 -109.1368 0.0000 0.0000 4.7169 -19.9751 5.3721 -1.9490 7.1250 -0.0000 -0.0000 5.0003 -24.2681 2.5125
-5.0808 16.5369 -3.1868 -0.2859 -6.2528 26.0386 0.0000 0.0000 0.0000 2.0471 -11.9877 -58.7156 7.0263 15.3540 48.9738 0.7517 -4.0055 -15.5163 4.4023 -12.6774 -38.1724 0.0000 0.0000 0.0000 1.2123 15.4946 -61.0391 -8.6201 -16.5570 54.7669 -1.1599 -0.8184 -20.6672 -0.9021 6.0531 -16.9384 1.9598 -1.0662 24.1829 0.0357 -0.9943 10.6429 -0.8302 -0.4515 -1.7788 13.8279 6.4605 9.3146 -25.5911 5.5287 -29.3181 -12.6705 4.2146 -9.1582 0.0000 -0.0000 0.0000 -75.4896 -7.3191 34.2059 154.9470 -36.2581 -111.6788 -0.0000 0.0000 -53.0038 47.8709 27.2274 26.8319 -7.1250 0.0000 -0.0000 25.0306 65.8311 12.9448 0.0000 -0.0000 0.0000 85.7269 12.8013 47.3288 -150.8786 40.1283 -109.1611 0.0000 0.0000 4.9913 -20.2360 5.0740 -1.8674 7.1250 -0.0000 -0.0000 4.8106 -24.5747 2.3822
-5.0817 16.5326 -3.1881 -0.3978 -6.2233 26.1569 0.0000 0.0000 0.0000 2.1748 -11.9244 -58.8526 7.0321 15.3588 48.9954 0.7534 -3.6182 -15.5748 4.7621 -13.1108 -39.7846 0.0000 0.0000 0.0000 1.2614 15.6029 -61.1345 -8.6054 -16.5470 54.7151 -1.1490 -0.9689 -20.6290 -0.8943 6.0276 -16.8644 1.9491 -1.0772 24.1708 0.0438 -1.0104 10.6444 -0.8115 -0.4600 -1.7716 13.5208 6.6044 8.9712 -25.3684 5.7270 -29.0734 -12.4522 4.3064 -8.9816 -0.0000 -0.0000 0.0000 -75.5095 -7.2310 34.5197 155.0085 -36.1953 -111.7151 -0.0000 0.0000 -53.6231 47.9830 25.4562 25.5048 -7.1250 0.0000 -0.0000 24.4964 63.7704 11.4879 -0.0000 -0.0000 0.0000 85.7622 12.8554 47.5649 -150.8546 40.1495 -109.1457 0.0000 0.0000 4.8525 -20.7146 5.1036 -1.9267 7.1250 -0.0000 -0.0000 4.4528 -24.5264 2.2090
-5.0829 16.5261 -3.1935 -0.4196 -6.1895 26.3033 0.0000 0.0000 0.0000 2.2620 -11.9454 -59.0557 7.0355 15.3617 49.0084 0.7491 -3.4072 -15.5538 4.9354 -13.3107 -40.5430 0.0000 0.0000 0.0000 1.1800 15.6983 -61.3232 -8.6070 -16.5480 54.7206 -1.1511 -0.9804 -20.6523 -0.8785 5.9752 -16.7125 1.8587 -1.0695 24.1714 0.0725 -1.0175 10.6281 -0.7272 -0.4671 -1.7885 13.3118 6.7548 8.3884 -25.2208 5.9441 -28.5881 -12.2342 4.3930 -8.6617 -0.0000 0.0000 0.0000 -75.5201 -7.1942 34.7135 155.1151 -36.0861 -111.7780 -0.0000 0.0000 -53.9767 47.8890 24.8323 24.9198 -7.1250 0.0000 -0.0000 24.1015 62.9944 10.8542 -0.0000 0.0000 0.0000 85.8215 13.0436 47.8320 -150.7784 40.2168 -109.0965 0.0000 0.0000 4.7130 -21.1275 4.9390 -1.9055 7.1250 -0.0000 -0.0000 4.1461 -24.6871 2.0406
-5.0820 16.5230 -3.1990 -0.3848 -6.1296 26.3687 0.0000 0.0000 0.0000 2.2921 -12.0389 -59.1555 7.0311 15.3580 48.9919 0.7453 -3.5982 -15.4894 4.7375 -13.0820 -39.6761 0.0000 0.0000 0.0000 1.1698 15.6656 -61.3885 -8.6132 -16.5523 54.7426 -1.1452 -1.2513 -20.7087 -1.0197 6.4242 -18.0204 1.8013 -1.1063 24.2163 0.0270 -1.0766 10.6606 -0.7285 -0.4960 -1.7762 13.8548 6.5926 9.0083 -25.5618 5.7249 -29.1821 -12.6151 4.2936 -8.9977 0.0000 -0.0000 0.0000 -75.4783 -7.2116 34.6608 155.2503 -35.9470 -111.8575 -0.0000 0.0000 -53.9841 48.2945 25.2203 25.5549 -7.1250 0.0000 -0.0000 24.9059 63.5865 11.5850 0.0000 -0.0000 0.0000 85.6349 14.0571 47.4550 -150.2569 40.6722 -108.7582 0.0000 0.0000 4.1734 -21.1403 4.7488 -1.8335 7.1250 -0.0000 -0.0000 4.1386 -24.8898 2.0174
-5.0791 16.5261 -3.2024 -0.3084 -6.0480 26.3547 0.0000 0.0000 0.0000 2.2625 -12.1695 -59.1682 7.0187 15.3476 48.9449 0.7435 -3.7870 -15.4497 4.4939 -12.7902 -38.5880 0.0000 0.0000 0.0000 1.2602 15.4921 -61.3096 -8.6109 -16.5507 54.7347 -1.1169 -1.8640 -20.7180 -1.3144 7.2617 -20.4930 1.7847 -1.1791 24.2765 -0.0594 -1.1743 10.7271 -0.7874 -0.5409 -1.7361 13.3943 6.8771 7.8845 -25.2286 6.1100 -28.4345 -12.1885 4.4460 -8.4613 -0.0000 -0.0000 0.0000 -75.4040 -7.3262 34.3907 155.2969 -35.8990 -111.8848 -0.0000 0.0000 -53.8770 48.8643 25.8105 26.4952 -7.1250 0.0000 -0.0000 26.1088 64.4699 12.7186 -0.0000 -0.0000 0.0000 86.0500 13.4280 48.0757 -150.7097 40.2773 -109.0521 0.0000 0.0000 4.9728 -21.1840 5.0770 -1.9643 7.1250 -0.0000 -0.0000 4.1025 -24.5377 2.0332
